<svg width="186" height="186" viewBox="0 0 186 186" fill="none" xmlns="http://www.w3.org/2000/svg">
<path d="M93 0C117.645 0 141.267 9.858 158.751 27.249L145.545 40.455C138.651 33.5399 130.462 28.0507 121.446 24.3008C112.431 20.5508 102.765 18.6137 93 18.6C73.284 18.6 54.312 26.412 40.455 40.455L27.249 27.249C44.733 9.858 68.355 0 93 0ZM15.438 41.85L28.923 55.242C22.1914 66.6886 18.6284 79.7208 18.6 93C18.6 112.732 26.4385 131.656 40.3913 145.609C54.344 159.561 73.2679 167.4 93 167.4C112.732 167.4 131.656 159.561 145.609 145.609C159.561 131.656 167.4 112.732 167.4 93C167.4 79.701 163.773 66.681 156.984 55.242L170.562 41.85C180.635 57.0064 186.006 74.8013 186 93C186 117.665 176.202 141.32 158.761 158.761C141.32 176.202 117.665 186 93 186C80.7871 186 68.6937 183.594 57.4104 178.921C46.1272 174.247 35.8749 167.397 27.2391 158.761C9.79819 141.32 0 117.665 0 93C0 74.772 5.394 56.916 15.438 41.85ZM93 37.2C107.799 37.2 121.992 43.0789 132.457 53.5434C142.921 64.008 148.8 78.2009 148.8 93C148.8 107.787 142.941 122.016 132.432 132.432L119.319 119.319C112.337 126.295 102.87 130.214 93 130.214C83.1298 130.214 73.6634 126.295 66.681 119.319L53.568 132.432C48.3726 127.265 44.2515 121.12 41.4422 114.352C38.633 107.584 37.1912 100.328 37.2 93C37.2 78.2009 43.0789 64.008 53.5434 53.5434C64.008 43.0789 78.2009 37.2 93 37.2Z" fill="url(#paint0_linear_102_5)"/>
<defs>
<linearGradient id="paint0_linear_102_5" x1="93" y1="0" x2="93" y2="186" gradientUnits="userSpaceOnUse">
<stop stop-color="white"/>
<stop offset="1" stop-color="white" stop-opacity="0.66"/>
</linearGradient>
</defs>
</svg>
