<svg width="60" height="60" viewBox="0 0 60 60" fill="none" xmlns="http://www.w3.org/2000/svg">
<path d="M30 0C37.95 0 45.57 3.18 51.21 8.79L46.95 13.05C44.7261 10.8193 42.0846 9.0486 39.1763 7.83895C36.268 6.6293 33.1498 6.00442 30 6C23.64 6 17.52 8.52 13.05 13.05L8.79 8.79C14.43 3.18 22.05 0 30 0ZM4.98 13.5L9.33 17.82C7.15852 21.5124 6.00916 25.7164 6 30C6 36.3652 8.52856 42.4697 13.0294 46.9706C17.5303 51.4714 23.6348 54 30 54C36.3652 54 42.4697 51.4714 46.9706 46.9706C51.4714 42.4697 54 36.3652 54 30C54 25.71 52.83 21.51 50.64 17.82L55.02 13.5C58.2695 18.3892 60.002 24.1295 60 30C60 37.9565 56.8393 45.5871 51.2132 51.2132C45.5871 56.8393 37.9565 60 30 60C26.0603 60 22.1593 59.224 18.5195 57.7164C14.8797 56.2087 11.5726 53.999 8.7868 51.2132C3.16071 45.5871 0 37.9565 0 30C0 24.12 1.74 18.36 4.98 13.5ZM30 12C34.7739 12 39.3523 13.8964 42.7279 17.2721C46.1036 20.6477 48 25.2261 48 30C48 34.77 46.11 39.36 42.72 42.72L38.49 38.49C36.2376 40.7404 33.1839 42.0045 30 42.0045C26.8161 42.0045 23.7624 40.7404 21.51 38.49L17.28 42.72C15.6041 41.0531 14.2747 39.0709 13.3685 36.8878C12.4623 34.7047 11.9972 32.3637 12 30C12 25.2261 13.8964 20.6477 17.2721 17.2721C20.6477 13.8964 25.2261 12 30 12Z" fill="url(#paint0_linear_102_2)"/>
<defs>
<linearGradient id="paint0_linear_102_2" x1="30" y1="0" x2="30" y2="60" gradientUnits="userSpaceOnUse">
<stop stop-color="white"/>
<stop offset="1" stop-color="white" stop-opacity="0.66"/>
</linearGradient>
</defs>
</svg>
